<svg id="visual" viewBox="0 0 960 540" width="960" height="540" xmlns="http://www.w3.org/2000/svg" xmlns:xlink="http://www.w3.org/1999/xlink" version="1.1"><rect width="960" height="540" fill="#131a1f"></rect><g><g transform="translate(818 377)"><path d="M0 -144L124.7 -72L124.7 72L0 144L-124.7 72L-124.7 -72Z" fill="none" stroke="#16a1e1" stroke-width="2"></path></g><g transform="translate(356 283)"><path d="M0 -112L97 -56L97 56L0 112L-97 56L-97 -56Z" fill="none" stroke="#16a1e1" stroke-width="2"></path></g><g transform="translate(73 48)"><path d="M0 -81L70.1 -40.5L70.1 40.5L0 81L-70.1 40.5L-70.1 -40.5Z" fill="none" stroke="#16a1e1" stroke-width="2"></path></g><g transform="translate(726 91)"><path d="M0 -89L77.1 -44.5L77.1 44.5L0 89L-77.1 44.5L-77.1 -44.5Z" stroke="#16a1e1" fill="none" stroke-width="2"></path></g><g transform="translate(31 458)"><path d="M0 -82L71 -41L71 41L0 82L-71 41L-71 -41Z" stroke="#16a1e1" fill="none" stroke-width="2"></path></g></g></svg>